PathFileType	4	(X/Y/Z)	C:/Users/opensim2020/Desktop/walking_exp_matlab/subject01_walking14_straight_01.trc	
DataRate	CameraRate	NumFrames	NumMarkers	Units	OrigDataRate	OrigDataStartFrame	OrigNumFrames	
100.00	100.00	4	42	mm	100.00	678	106	
Frame#	Time	LFHD			RFHD			LBHD			RBHD			C7			T10			CLAV			STRN			RBAK			LSHO			LUPA			LELB			LFRM			LWRA			LWRB			LFIN			RSHO			RUPA			RELB			RFRM			RWRA			RWRB			RFIN			LASI			RASI			LPSI			RPSI			LTHI			LKNE			LTIB			LANK			LHEE			LTOE			RTHI			RKNE			RTIB			RANK			RHEE			RTOE			*39			*40			*41			
		X1	Y1	Z1	X2	Y2	Z2	X3	Y3	Z3	X4	Y4	Z4	X5	Y5	Z5	X6	Y6	Z6	X7	Y7	Z7	X8	Y8	Z8	X9	Y9	Z9	X10	Y10	Z10	X11	Y11	Z11	X12	Y12	Z12	X13	Y13	Z13	X14	Y14	Z14	X15	Y15	Z15	X16	Y16	Z16	X17	Y17	Z17	X18	Y18	Z18	X19	Y19	Z19	X20	Y20	Z20	X21	Y21	Z21	X22	Y22	Z22	X23	Y23	Z23	X24	Y24	Z24	X25	Y25	Z25	X26	Y26	Z26	X27	Y27	Z27	X28	Y28	Z28	X29	Y29	Z29	X30	Y30	Z30	X31	Y31	Z31	X32	Y32	Z32	X33	Y33	Z33	X34	Y34	Z34	X35	Y35	Z35	X36	Y36	Z36	X37	Y37	Z37	X38	Y38	Z38	X39	Y39	Z39	X40	Y40	Z40	X41	Y41	Z41	X42	Y42	Z42	

1	0.000	1424.34460	-842.65070	1646.63098	1531.49292	-806.67419	1655.41199	1456.87476	-951.78967	1596.96704	1571.37390	-916.17444	1604.58899	1486.49731	-974.47357	1409.76892	1474.57336	-1023.55273	1118.78638	1480.63611	-834.23779	1334.74182	1472.50171	-798.71088	1179.19226	1555.78003	-1040.08484	1219.24036	1321.44470	-893.76141	1369.06763	1230.80212	-953.39563	1194.43860	1224.91223	-1001.10486	1056.50208	1189.60107	-1007.05731	947.93195	1185.93848	-981.23224	809.51123	1173.33008	-1036.40137	829.52429	1149.81531	-1024.77771	748.70367	1633.41162	-895.21191	1366.83545	1731.26965	-969.57111	1174.87549	1748.12134	-966.14026	1048.94421	1780.42969	-898.08691	945.81897	1769.40051	-776.90344	875.73828	1799.90234	-819.52502	853.71216	1813.31641	-751.82813	807.08856	1373.72766	-847.43378	911.32837	1587.66919	-876.36151	899.59839	1395.93787	-1035.76453	928.49188	1539.56958	-1054.72437	929.89380	1346.00562	-807.35895	586.08112	1383.60925	-791.44299	457.41776	1390.55481	-827.22174	270.02835	1465.49744	-852.34192	61.55587	1516.95398	-902.21057	34.00863	1476.43408	-707.60364	33.87708	1660.61865	-994.21082	581.01068	1658.05249	-1023.45123	425.19012	1648.17273	-1181.52283	345.94409	1597.84448	-1339.51514	216.86249	1533.00977	-1369.12988	237.87950	1613.35315	-1352.08789	67.57982	1511.55884	-824.46130	1687.62036	-3101.93115	1973.18530	1023.54364	-3140.74878	2012.46472	1022.05206 
2	0.010	1424.37976	-829.78577	1647.95178	1531.55676	-793.64862	1656.81763	1457.22009	-939.08173	1598.62207	1571.63306	-903.28259	1606.39758	1487.07910	-962.32642	1411.58350	1475.65930	-1011.35077	1120.34119	1481.40698	-822.08057	1336.33533	1473.42175	-786.49677	1180.66858	1556.37341	-1027.88525	1220.81592	1322.16418	-881.63574	1370.50891	1231.74060	-939.61066	1194.97900	1226.83203	-986.62555	1056.32275	1192.59814	-990.66693	947.25610	1190.32996	-962.26410	809.32550	1177.29248	-1017.81873	828.07623	1155.10437	-1004.29443	747.00824	1634.09998	-883.18677	1368.58911	1731.52710	-957.75580	1176.49573	1747.51306	-954.64886	1050.27502	1779.76306	-888.50598	945.67139	1768.49377	-768.59106	873.00085	1799.21753	-811.70605	851.99487	1812.08252	-744.96222	803.75928	1373.58240	-836.13141	912.54474	1588.37622	-863.23865	901.28076	1398.29700	-1024.45374	929.28821	1542.21655	-1042.57715	929.97711	1346.72742	-800.27771	586.14691	1384.20605	-785.79163	457.41681	1390.95654	-824.30414	270.02518	1465.62024	-852.08307	61.65380	1516.91541	-902.15326	34.14758	1476.30701	-707.13123	33.39908	1663.76660	-970.06390	579.56799	1661.02344	-995.72290	423.39560	1652.91833	-1154.26428	345.27563	1601.40894	-1316.63171	221.93285	1537.71216	-1348.79065	244.35657	1615.47498	-1327.86462	73.35413	1511.35791	-811.33191	1689.10779	-3101.88940	1973.14441	1023.56531	-3140.70483	2012.49146	1021.99902 
3	0.020	1424.56812	-817.07770	1649.25793	1531.69458	-780.65985	1658.13684	1457.62585	-926.35712	1600.41724	1571.96204	-890.42224	1608.18933	1487.59070	-950.11731	1413.14355	1476.60522	-999.28430	1121.92493	1482.12939	-810.02850	1337.98987	1474.23987	-774.33533	1182.24976	1556.62048	-1015.76715	1222.35229	1322.83215	-869.52161	1372.02332	1232.71521	-925.73883	1195.64441	1228.63550	-971.98804	1056.28601	1195.39844	-973.65350	946.65662	1194.70618	-942.40729	809.42273	1181.02502	-998.32593	826.70972	1160.35059	-982.61261	745.46588	1634.74353	-871.34521	1370.36011	1731.63867	-946.21649	1178.12537	1746.88940	-943.37146	1051.62280	1779.01038	-879.32526	945.59332	1767.57458	-760.80688	870.28876	1798.49963	-804.29559	850.30273	1810.78943	-738.66656	800.38007	1373.62195	-824.81903	913.89008	1589.21643	-850.33148	903.21680	1400.77307	-1013.23853	930.33704	1544.54822	-1029.89880	929.71075	1347.32141	-793.72894	586.03900	1384.51550	-780.66443	456.93042	1391.33667	-821.34406	269.78122	1465.84351	-851.69104	61.59012	1516.86743	-902.08997	34.31165	1476.14856	-706.62329	33.03342	1666.52234	-946.06458	579.11810	1663.28418	-967.52869	422.02060	1657.38330	-1126.99243	345.19266	1604.71338	-1292.67419	226.78906	1542.09656	-1327.53723	249.28412	1617.73291	-1300.22192	78.26977	1511.48157	-798.15533	1690.60962	-3101.95581	1973.14783	1023.51111	-3140.80371	2012.53296	1022.14398 
4	0.030	1424.91968	-804.24988	1650.62683	1532.03784	-767.69769	1659.40881	1458.04541	-913.49487	1602.14697	1572.34790	-877.63080	1609.85889	1488.13586	-938.26843	1414.87805	1477.60706	-987.29181	1123.58337	1482.95251	-797.99298	1339.64050	1475.00305	-762.34338	1183.79102	1556.57544	-1003.65674	1223.74622	1323.55090	-857.47125	1373.64990	1233.75769	-911.95685	1196.65625	1230.28931	-957.18384	1056.33789	1197.92395	-956.21216	946.17542	1199.13721	-921.81812	809.66760	1184.58289	-977.98242	825.50110	1165.43677	-959.93231	744.07208	1635.43066	-859.31171	1372.17761	1731.71558	-934.97748	1179.68933	1746.23975	-932.28076	1053.01318	1778.26685	-870.46429	945.62927	1766.64941	-753.45569	867.67584	1797.86377	-797.36554	848.77246	1809.50391	-733.03748	796.91687	1373.93225	-813.70569	915.23871	1590.12195	-837.63379	905.26733	1403.26233	-1002.02551	931.59180	1547.20288	-1017.81439	930.61401	1348.30273	-788.19672	585.50433	1385.09827	-775.64191	456.29373	1391.60107	-818.34698	269.39410	1465.97058	-851.49365	61.70256	1517.02002	-901.98352	34.52089	1475.88318	-706.17017	32.58186	1669.09229	-922.49133	579.59839	1665.40515	-939.43347	421.33719	1660.98254	-1099.43250	345.38809	1607.78870	-1266.98975	230.66876	1546.23730	-1304.78967	252.95998	1620.06726	-1270.52747	82.08742	1511.82495	-785.01532	1692.00305	-3102.09692	1973.13733	1023.50989	-3140.80078	2012.50488	1022.05420 
